<mxfile host="Electron" agent="Mozilla/5.0 (Windows NT 10.0; Win64; x64) AppleWebKit/537.36 (KHTML, like Gecko) draw.io/25.0.2 Chrome/128.0.6613.186 Electron/32.2.5 Safari/537.36" version="25.0.2">
  <diagram name="Page-1" id="10a91c8b-09ff-31b1-d368-03940ed4cc9e">
    <mxGraphModel dx="573" dy="763" grid="1" gridSize="10" guides="1" tooltips="1" connect="1" arrows="1" fold="1" page="1" pageScale="1" pageWidth="1100" pageHeight="850" background="none" math="0" shadow="0">
      <root>
        <mxCell id="0" />
        <mxCell id="1" parent="0" />
        <mxCell id="62893188c0fa7362-1" value="Daisy chain&lt;br&gt;(J101)" style="whiteSpace=wrap;html=1;rounded=0;shadow=0;labelBackgroundColor=none;strokeWidth=1;fontFamily=Verdana;fontSize=12;align=center;aspect=fixed;" parent="1" vertex="1">
          <mxGeometry x="252" y="60" width="116" height="58" as="geometry" />
        </mxCell>
        <mxCell id="62893188c0fa7362-2" value="&lt;span&gt;insulation transformer&lt;/span&gt;" style="whiteSpace=wrap;html=1;rounded=0;shadow=0;labelBackgroundColor=none;strokeWidth=1;fontFamily=Verdana;fontSize=12;align=center;aspect=fixed;" parent="1" vertex="1">
          <mxGeometry x="252" y="180" width="116" height="58" as="geometry" />
        </mxCell>
        <mxCell id="62893188c0fa7362-5" value="" style="rounded=0;html=1;labelBackgroundColor=none;startArrow=classic;startFill=1;startSize=5;endArrow=classic;endFill=1;endSize=5;jettySize=auto;orthogonalLoop=1;strokeWidth=1.5;fontFamily=Verdana;fontSize=12" parent="1" source="62893188c0fa7362-1" target="62893188c0fa7362-2" edge="1">
          <mxGeometry x="-0.359" y="-11" relative="1" as="geometry">
            <mxPoint as="offset" />
          </mxGeometry>
        </mxCell>
        <mxCell id="62893188c0fa7362-8" value="&lt;span&gt;&lt;b&gt;LTC6820&lt;br&gt;Channel 1&lt;/b&gt;&lt;/span&gt;" style="whiteSpace=wrap;html=1;rounded=0;shadow=0;labelBackgroundColor=none;strokeWidth=1;fontFamily=Verdana;fontSize=12;align=center;" parent="1" vertex="1">
          <mxGeometry x="250" y="300" width="120" height="60" as="geometry" />
        </mxCell>
        <mxCell id="62893188c0fa7362-9" value="&lt;span&gt;insulation transformer&lt;/span&gt;" style="whiteSpace=wrap;html=1;rounded=0;shadow=0;labelBackgroundColor=none;strokeWidth=1;fontFamily=Verdana;fontSize=12;align=center;aspect=fixed;" parent="1" vertex="1">
          <mxGeometry x="392" y="180" width="116" height="58" as="geometry" />
        </mxCell>
        <mxCell id="62893188c0fa7362-12" value="&lt;span&gt;Master connector&lt;br&gt;(J100)&lt;/span&gt;" style="whiteSpace=wrap;html=1;rounded=0;shadow=0;labelBackgroundColor=none;strokeWidth=1;fontFamily=Verdana;fontSize=12;align=center;" parent="1" vertex="1">
          <mxGeometry x="460" y="450" width="120" height="60" as="geometry" />
        </mxCell>
        <mxCell id="62893188c0fa7362-13" value="&lt;span&gt;&lt;b&gt;LTC6820&lt;br&gt;Channel 2&lt;/b&gt;&lt;/span&gt;" style="whiteSpace=wrap;html=1;rounded=0;shadow=0;labelBackgroundColor=none;strokeWidth=1;fontFamily=Verdana;fontSize=12;align=center;" parent="1" vertex="1">
          <mxGeometry x="390" y="300" width="120" height="60" as="geometry" />
        </mxCell>
        <mxCell id="62893188c0fa7362-14" value="" style="rounded=0;html=1;labelBackgroundColor=none;startArrow=classic;startFill=1;startSize=5;endArrow=classic;endFill=1;endSize=5;jettySize=auto;orthogonalLoop=1;strokeWidth=1.5;fontFamily=Verdana;fontSize=12" parent="1" source="62893188c0fa7362-2" target="62893188c0fa7362-8" edge="1">
          <mxGeometry x="-0.2" y="-14" relative="1" as="geometry">
            <mxPoint as="offset" />
          </mxGeometry>
        </mxCell>
        <mxCell id="62893188c0fa7362-18" value="" style="rounded=0;html=1;labelBackgroundColor=none;startArrow=classic;startFill=1;startSize=5;endArrow=classic;endFill=1;endSize=5;jettySize=auto;orthogonalLoop=1;strokeWidth=1.5;fontFamily=Verdana;fontSize=12;edgeStyle=elbowEdgeStyle;elbow=vertical;entryX=0.25;entryY=0;entryDx=0;entryDy=0;" parent="1" source="62893188c0fa7362-8" target="62893188c0fa7362-12" edge="1">
          <mxGeometry x="-0.2168" y="-14" relative="1" as="geometry">
            <mxPoint as="offset" />
          </mxGeometry>
        </mxCell>
        <mxCell id="2_y01EWc5slEnrFXj7PQ-18" value="CS1" style="edgeLabel;html=1;align=center;verticalAlign=middle;resizable=0;points=[];fontSize=12;" parent="62893188c0fa7362-18" vertex="1" connectable="0">
          <mxGeometry x="-0.9077" y="-1" relative="1" as="geometry">
            <mxPoint x="21" y="8" as="offset" />
          </mxGeometry>
        </mxCell>
        <mxCell id="2_y01EWc5slEnrFXj7PQ-22" value="SPI1, GPIOs" style="edgeLabel;html=1;align=center;verticalAlign=middle;resizable=0;points=[];fontSize=12;" parent="62893188c0fa7362-18" vertex="1" connectable="0">
          <mxGeometry x="0.8872" y="-2" relative="1" as="geometry">
            <mxPoint x="-18" y="-9" as="offset" />
          </mxGeometry>
        </mxCell>
        <mxCell id="2_y01EWc5slEnrFXj7PQ-2" value="Daisy chain&lt;br&gt;(J102)" style="whiteSpace=wrap;html=1;rounded=0;shadow=0;labelBackgroundColor=none;strokeWidth=1;fontFamily=Verdana;fontSize=12;align=center;aspect=fixed;" parent="1" vertex="1">
          <mxGeometry x="392" y="60" width="116" height="58" as="geometry" />
        </mxCell>
        <mxCell id="2_y01EWc5slEnrFXj7PQ-3" value="Daisy chain&lt;br&gt;(J103)" style="whiteSpace=wrap;html=1;rounded=0;shadow=0;labelBackgroundColor=none;strokeWidth=1;fontFamily=Verdana;fontSize=12;align=center;aspect=fixed;" parent="1" vertex="1">
          <mxGeometry x="532" y="60" width="116" height="58" as="geometry" />
        </mxCell>
        <mxCell id="2_y01EWc5slEnrFXj7PQ-4" value="Daisy chain&lt;br&gt;(J104)" style="whiteSpace=wrap;html=1;rounded=0;shadow=0;labelBackgroundColor=none;strokeWidth=1;fontFamily=Verdana;fontSize=12;align=center;aspect=fixed;" parent="1" vertex="1">
          <mxGeometry x="672" y="60" width="116" height="58" as="geometry" />
        </mxCell>
        <mxCell id="2_y01EWc5slEnrFXj7PQ-5" value="&lt;span&gt;insulation transformer&lt;/span&gt;" style="whiteSpace=wrap;html=1;rounded=0;shadow=0;labelBackgroundColor=none;strokeWidth=1;fontFamily=Verdana;fontSize=12;align=center;aspect=fixed;" parent="1" vertex="1">
          <mxGeometry x="532" y="180" width="116" height="58" as="geometry" />
        </mxCell>
        <mxCell id="2_y01EWc5slEnrFXj7PQ-6" value="&lt;span&gt;insulation transformer&lt;/span&gt;" style="whiteSpace=wrap;html=1;rounded=0;shadow=0;labelBackgroundColor=none;strokeWidth=1;fontFamily=Verdana;fontSize=12;align=center;aspect=fixed;" parent="1" vertex="1">
          <mxGeometry x="672" y="180" width="116" height="58" as="geometry" />
        </mxCell>
        <mxCell id="2_y01EWc5slEnrFXj7PQ-7" value="&lt;span&gt;&lt;b&gt;LTC6820&lt;br&gt;Channel 3&lt;/b&gt;&lt;/span&gt;" style="whiteSpace=wrap;html=1;rounded=0;shadow=0;labelBackgroundColor=none;strokeWidth=1;fontFamily=Verdana;fontSize=12;align=center;" parent="1" vertex="1">
          <mxGeometry x="530" y="300" width="120" height="60" as="geometry" />
        </mxCell>
        <mxCell id="2_y01EWc5slEnrFXj7PQ-8" value="&lt;span&gt;&lt;b&gt;LTC6820&lt;br&gt;Channel 4&lt;/b&gt;&lt;/span&gt;" style="whiteSpace=wrap;html=1;rounded=0;shadow=0;labelBackgroundColor=none;strokeWidth=1;fontFamily=Verdana;fontSize=12;align=center;" parent="1" vertex="1">
          <mxGeometry x="670" y="300" width="120" height="60" as="geometry" />
        </mxCell>
        <mxCell id="2_y01EWc5slEnrFXj7PQ-9" value="" style="rounded=0;html=1;labelBackgroundColor=none;startArrow=classic;startFill=1;startSize=5;endArrow=classic;endFill=1;endSize=5;jettySize=auto;orthogonalLoop=1;strokeWidth=1.5;fontFamily=Verdana;fontSize=12;exitX=0.5;exitY=1;exitDx=0;exitDy=0;entryX=0.5;entryY=0;entryDx=0;entryDy=0;" parent="1" source="2_y01EWc5slEnrFXj7PQ-2" target="62893188c0fa7362-9" edge="1">
          <mxGeometry x="-0.359" y="-11" relative="1" as="geometry">
            <mxPoint as="offset" />
            <mxPoint x="460" y="110" as="sourcePoint" />
            <mxPoint x="460" y="190" as="targetPoint" />
          </mxGeometry>
        </mxCell>
        <mxCell id="2_y01EWc5slEnrFXj7PQ-10" value="" style="rounded=0;html=1;labelBackgroundColor=none;startArrow=classic;startFill=1;startSize=5;endArrow=classic;endFill=1;endSize=5;jettySize=auto;orthogonalLoop=1;strokeWidth=1.5;fontFamily=Verdana;fontSize=12;exitX=0.5;exitY=1;exitDx=0;exitDy=0;entryX=0.5;entryY=0;entryDx=0;entryDy=0;" parent="1" source="2_y01EWc5slEnrFXj7PQ-3" target="2_y01EWc5slEnrFXj7PQ-5" edge="1">
          <mxGeometry x="-0.359" y="-11" relative="1" as="geometry">
            <mxPoint as="offset" />
            <mxPoint x="670" y="120" as="sourcePoint" />
            <mxPoint x="670" y="200" as="targetPoint" />
          </mxGeometry>
        </mxCell>
        <mxCell id="2_y01EWc5slEnrFXj7PQ-11" value="" style="rounded=0;html=1;labelBackgroundColor=none;startArrow=classic;startFill=1;startSize=5;endArrow=classic;endFill=1;endSize=5;jettySize=auto;orthogonalLoop=1;strokeWidth=1.5;fontFamily=Verdana;fontSize=12;exitX=0.5;exitY=1;exitDx=0;exitDy=0;entryX=0.5;entryY=0;entryDx=0;entryDy=0;" parent="1" source="2_y01EWc5slEnrFXj7PQ-4" target="2_y01EWc5slEnrFXj7PQ-6" edge="1">
          <mxGeometry x="-0.359" y="-11" relative="1" as="geometry">
            <mxPoint as="offset" />
            <mxPoint x="180" y="130" as="sourcePoint" />
            <mxPoint x="180" y="210" as="targetPoint" />
            <Array as="points" />
          </mxGeometry>
        </mxCell>
        <mxCell id="2_y01EWc5slEnrFXj7PQ-12" value="" style="rounded=0;html=1;labelBackgroundColor=none;startArrow=classic;startFill=1;startSize=5;endArrow=classic;endFill=1;endSize=5;jettySize=auto;orthogonalLoop=1;strokeWidth=1.5;fontFamily=Verdana;fontSize=12;exitX=0.5;exitY=1;exitDx=0;exitDy=0;entryX=0.5;entryY=0;entryDx=0;entryDy=0;" parent="1" source="62893188c0fa7362-9" target="62893188c0fa7362-13" edge="1">
          <mxGeometry x="-0.359" y="-11" relative="1" as="geometry">
            <mxPoint as="offset" />
            <mxPoint x="449.5" y="250" as="sourcePoint" />
            <mxPoint x="470" y="280" as="targetPoint" />
          </mxGeometry>
        </mxCell>
        <mxCell id="2_y01EWc5slEnrFXj7PQ-13" value="" style="rounded=0;html=1;labelBackgroundColor=none;startArrow=classic;startFill=1;startSize=5;endArrow=classic;endFill=1;endSize=5;jettySize=auto;orthogonalLoop=1;strokeWidth=1.5;fontFamily=Verdana;fontSize=12;exitX=0.5;exitY=1;exitDx=0;exitDy=0;entryX=0.5;entryY=0;entryDx=0;entryDy=0;" parent="1" source="2_y01EWc5slEnrFXj7PQ-5" target="2_y01EWc5slEnrFXj7PQ-7" edge="1">
          <mxGeometry x="-0.359" y="-11" relative="1" as="geometry">
            <mxPoint as="offset" />
            <mxPoint x="250" y="150" as="sourcePoint" />
            <mxPoint x="250" y="230" as="targetPoint" />
          </mxGeometry>
        </mxCell>
        <mxCell id="2_y01EWc5slEnrFXj7PQ-14" value="" style="rounded=0;html=1;labelBackgroundColor=none;startArrow=classic;startFill=1;startSize=5;endArrow=classic;endFill=1;endSize=5;jettySize=auto;orthogonalLoop=1;strokeWidth=1.5;fontFamily=Verdana;fontSize=12;exitX=0.5;exitY=1;exitDx=0;exitDy=0;entryX=0.5;entryY=0;entryDx=0;entryDy=0;" parent="1" source="2_y01EWc5slEnrFXj7PQ-6" target="2_y01EWc5slEnrFXj7PQ-8" edge="1">
          <mxGeometry x="-0.359" y="-11" relative="1" as="geometry">
            <mxPoint as="offset" />
            <mxPoint x="210" y="160" as="sourcePoint" />
            <mxPoint x="210" y="240" as="targetPoint" />
          </mxGeometry>
        </mxCell>
        <mxCell id="2_y01EWc5slEnrFXj7PQ-15" value="" style="rounded=0;html=1;labelBackgroundColor=none;startArrow=classic;startFill=1;startSize=5;endArrow=classic;endFill=1;endSize=5;jettySize=auto;orthogonalLoop=1;strokeWidth=1.5;fontFamily=Verdana;fontSize=12;edgeStyle=elbowEdgeStyle;elbow=vertical;exitX=0.5;exitY=1;exitDx=0;exitDy=0;entryX=0.75;entryY=0;entryDx=0;entryDy=0;" parent="1" source="2_y01EWc5slEnrFXj7PQ-8" target="62893188c0fa7362-12" edge="1">
          <mxGeometry x="-0.2168" y="-14" relative="1" as="geometry">
            <mxPoint as="offset" />
            <mxPoint x="230" y="370" as="sourcePoint" />
            <mxPoint x="560" y="460" as="targetPoint" />
          </mxGeometry>
        </mxCell>
        <mxCell id="2_y01EWc5slEnrFXj7PQ-21" value="CS1" style="edgeLabel;html=1;align=center;verticalAlign=middle;resizable=0;points=[];fontSize=12;" parent="2_y01EWc5slEnrFXj7PQ-15" vertex="1" connectable="0">
          <mxGeometry x="-0.8452" y="-1" relative="1" as="geometry">
            <mxPoint x="21" y="-1" as="offset" />
          </mxGeometry>
        </mxCell>
        <mxCell id="2_y01EWc5slEnrFXj7PQ-23" value="SPI4, GPIOs" style="edgeLabel;html=1;align=center;verticalAlign=middle;resizable=0;points=[];fontSize=12;" parent="2_y01EWc5slEnrFXj7PQ-15" vertex="1" connectable="0">
          <mxGeometry x="0.871" y="-3" relative="1" as="geometry">
            <mxPoint x="23" y="-7" as="offset" />
          </mxGeometry>
        </mxCell>
        <mxCell id="2_y01EWc5slEnrFXj7PQ-16" value="" style="rounded=0;html=1;labelBackgroundColor=none;startArrow=classic;startFill=1;startSize=5;endArrow=none;endFill=0;endSize=5;jettySize=auto;orthogonalLoop=1;strokeWidth=1.5;fontFamily=Verdana;fontSize=12;exitX=0.5;exitY=1;exitDx=0;exitDy=0;" parent="1" source="62893188c0fa7362-13" edge="1">
          <mxGeometry x="-0.359" y="-11" relative="1" as="geometry">
            <mxPoint as="offset" />
            <mxPoint x="660" y="250" as="sourcePoint" />
            <mxPoint x="450" y="405" as="targetPoint" />
          </mxGeometry>
        </mxCell>
        <mxCell id="2_y01EWc5slEnrFXj7PQ-19" value="CS2" style="edgeLabel;html=1;align=center;verticalAlign=middle;resizable=0;points=[];fontSize=12;" parent="2_y01EWc5slEnrFXj7PQ-16" vertex="1" connectable="0">
          <mxGeometry x="0.12" relative="1" as="geometry">
            <mxPoint x="20" y="-5" as="offset" />
          </mxGeometry>
        </mxCell>
        <mxCell id="2_y01EWc5slEnrFXj7PQ-17" value="" style="rounded=0;html=1;labelBackgroundColor=none;startArrow=classic;startFill=1;startSize=5;endArrow=none;endFill=0;endSize=5;jettySize=auto;orthogonalLoop=1;strokeWidth=1.5;fontFamily=Verdana;fontSize=12;exitX=0.5;exitY=1;exitDx=0;exitDy=0;targetPerimeterSpacing=0;" parent="1" source="2_y01EWc5slEnrFXj7PQ-7" edge="1">
          <mxGeometry x="-0.359" y="-11" relative="1" as="geometry">
            <mxPoint as="offset" />
            <mxPoint x="620" y="260" as="sourcePoint" />
            <mxPoint x="590" y="405" as="targetPoint" />
          </mxGeometry>
        </mxCell>
        <mxCell id="2_y01EWc5slEnrFXj7PQ-20" value="CS0" style="edgeLabel;html=1;align=center;verticalAlign=middle;resizable=0;points=[];fontSize=12;" parent="2_y01EWc5slEnrFXj7PQ-17" vertex="1" connectable="0">
          <mxGeometry x="0.25" y="-1" relative="1" as="geometry">
            <mxPoint x="21" y="-8" as="offset" />
          </mxGeometry>
        </mxCell>
      </root>
    </mxGraphModel>
  </diagram>
</mxfile>
